HIERARCHY
ROOT Hips
{
  OFFSET 0 0 0
  CHANNELS 6 Xposition Yposition Zposition Zrotation Xrotation Yrotation
  JOINT Spine
  {
    OFFSET 0 10 0
    CHANNELS 3 Zrotation Xrotation Yrotation
    JOINT Neck
    {
      OFFSET 0 30 0
      CHANNELS 3 Zrotation Xrotation Yrotation
      JOINT Head
      {
        OFFSET 0 8 0
        CHANNELS 3 Zrotation Xrotation Yrotation
        End Site
        {
          OFFSET 0 10 0
        }
      }
    }
    JOINT LeftArm
    {
      OFFSET 15 30 0
      CHANNELS 3 Zrotation Xrotation Yrotation
      JOINT LeftForeArm
      {
        OFFSET 25 0 0
        CHANNELS 3 Zrotation Xrotation Yrotation
        JOINT LeftHand
        {
          OFFSET 25 0 0
          CHANNELS 3 Zrotation Xrotation Yrotation
          End Site
          {
            OFFSET 10 0 0
          }
        }
      }
    }
    JOINT RightArm
    {
      OFFSET -15 30 0
      CHANNELS 3 Zrotation Xrotation Yrotation
      JOINT RightForeArm
      {
        OFFSET -25 0 0
        CHANNELS 3 Zrotation Xrotation Yrotation
        JOINT RightHand
        {
          OFFSET -25 0 0
          CHANNELS 3 Zrotation Xrotation Yrotation
          End Site
          {
            OFFSET -10 0 0
          }
        }
      }
    }
  }
  JOINT LeftUpLeg
  {
    OFFSET 10 -10 0
    CHANNELS 3 Zrotation Xrotation Yrotation
    JOINT LeftLeg
    {
      OFFSET 0 -35 0
      CHANNELS 3 Zrotation Xrotation Yrotation
      JOINT LeftToe
      {
        OFFSET 0 -40 0
        CHANNELS 3 Zrotation Xrotation Yrotation
        JOINT LeftToeEnd
        {
          OFFSET 0 0 0
          CHANNELS 3 Zrotation Xrotation Yrotation
          End Site
          {
            OFFSET 0 0 15
          }
        }
      }
    }
  }
  JOINT RightUpLeg
  {
    OFFSET -10 -10 0
    CHANNELS 3 Zrotation Xrotation Yrotation
    JOINT RightLeg
    {
      OFFSET 0 -35 0
      CHANNELS 3 Zrotation Xrotation Yrotation
      JOINT RightToe
      {
        OFFSET 0 -40 0
        CHANNELS 3 Zrotation Xrotation Yrotation
        JOINT RightToeEnd
        {
          OFFSET 0 0 0
          CHANNELS 3 Zrotation Xrotation Yrotation
          End Site
          {
            OFFSET 0 0 15
          }
        }
      }
    }
  }
}
MOTION
Frames:	18
Frame Time:	0.0333333
56.0827 87.3798 138.664 4.00101 1.58912 176.369 7.60892 11.2109 2.61082 -13.5287 -32.7075 -4.93858 15.8379 28.7976 -7.33439 -93.6721 40.2935 -2.75667 22.8572 -6.27826 -25.7398 1.21884 12.2891 0.798475 81.6263 52.2511 1.19418 -20.8627 -6.13775 27.2944 0.985664 23.4216 -0.55478 8.13766 -8.41303 -1.12383 -0.792882 30.6953 -9.13019 -0.458368 -20.8405 10.3657 -1.51661e-021 -6.06643e-021 -0 3.71003 -1.97379 -1.39064 0.000437694 21.5212 9.20057 -2.76142 -17.3198 -20.6613 -6.21202e-018 -2.48481e-017 -3.18055e-015 
56.096 87.3712 138.672 3.97964 1.61153 176.172 7.49883 11.5324 2.69523 -13.7477 -32.7132 -4.95757 16.2755 28.3466 -7.36238 -93.5891 40.2546 -2.79559 22.9349 -6.30905 -25.8617 1.21624 12.4058 0.786421 81.4016 51.8729 1.5773 -20.9192 -6.17793 27.4157 0.977919 23.5469 -0.553393 8.1648 -8.42235 -0.726117 -0.782869 30.8659 -9.13422 -0.441157 -20.8544 10.4187 2.32951e-018 -1.2424e-017 -7.95139e-016 3.67507 -2.11389 -1.35201 -0.00255758 21.6658 9.18877 -2.75929 -17.3283 -20.6547 1.86361e-017 -2.48481e-017 -3.18055e-015 
56.0795 87.3379 138.711 3.98815 1.48715 176.242 7.57911 11.6296 2.46614 -13.5658 -32.7631 -4.93643 15.7559 27.9822 -7.11031 -93.704 39.8737 -2.87166 22.9388 -6.29623 -25.8614 1.22579 12.7154 0.770365 81.3025 51.5215 1.67428 -20.8419 -6.0968 27.2139 0.998694 25.1904 -0.607621 8.2812 -8.71259 -0.44782 -0.776237 30.9877 -9.14275 -0.504006 -20.8848 9.91184 -2.84364e-022 0 3.97569e-016 3.66148 -2.36689 -1.5249 -0.0322201 21.864 9.17742 -2.83809 -17.5445 -20.3364 -7.76503e-019 3.10601e-018 -3.18055e-015 
56.084 87.3583 138.717 4.01313 1.25345 176.149 7.5228 11.5827 2.45971 -13.454 -32.4386 -4.73511 15.779 26.9768 -6.80211 -93.7022 39.443 -2.86825 22.8554 -6.27228 -25.7709 1.24547 12.6818 0.778587 81.3065 51.1581 1.74975 -21.0224 -6.22625 27.58 0.967628 24.53 -0.584694 8.43326 -9.02195 0.0365301 -0.767788 31.1209 -9.13777 -0.451516 -20.8195 9.55545 -4.65902e-018 0 -0 3.69229 -2.61671 -1.53056 -0.00834625 21.7511 9.15365 -2.72135 -17.3021 -20.244 1.2424e-017 -1.2424e-017 3.18055e-015 
56.0604 87.3597 138.723 4.16322 1.07392 175.89 7.79676 11.7805 2.56394 -13.5619 -32.3432 -4.62627 15.6997 26.0665 -6.55385 -93.6087 39.3403 -3.18399 22.7728 -6.21987 -25.632 1.2336 12.6768 0.794937 80.8042 50.8422 2.16082 -21.0782 -6.26623 27.6916 0.95729 24.9987 -0.583208 8.69676 -9.31854 0.559746 -0.760088 31.3928 -9.14297 -0.405926 -20.8598 9.23795 -3.88251e-018 -1.2424e-017 3.97569e-016 3.80167 -2.88375 -1.5442 -0.00591691 21.7298 9.13041 -2.64812 -17.1557 -19.95 -6.21202e-018 2.48481e-017 -6.36111e-015 
56.0296 87.3294 138.736 4.33947 1.09415 175.771 8.12506 12.2002 2.51337 -13.7569 -32.0981 -4.53162 15.7577 24.9204 -6.28171 -93.6764 39.2766 -3.3636 22.7193 -6.20992 -25.5833 1.22106 12.7585 0.813227 80.3752 50.6098 2.36607 -21.1452 -6.3342 27.8546 0.952085 25.1227 -0.59032 8.97265 -9.44505 1.01324 -0.74629 31.7142 -9.15048 -0.320225 -21.0049 9.02491 1.2424e-017 -3.72721e-017 -3.97569e-016 3.9483 -2.92062 -1.61245 -0.0194839 21.7993 9.15542 -2.59775 -17.2168 -19.6745 -3.10601e-018 1.2424e-017 3.18055e-015 
56.0104 87.2979 138.774 4.32195 0.963691 175.757 8.08472 12.6056 2.39152 -13.6884 -32.4251 -4.44691 15.7907 24.5021 -5.98882 -93.3786 38.9403 -3.91016 22.5859 -6.13208 -25.3777 1.23612 12.8712 0.813076 80.1258 50.4415 2.5376 -21.0984 -6.25464 27.6954 0.95844 25.1652 -0.612131 9.0938 -9.83453 1.54064 -0.731953 32.0619 -9.1536 -0.259611 -21.0158 8.57357 6.28967e-017 0 -0 3.90039 -3.38748 -1.91361 -0.0529807 22.1895 9.13673 -2.64448 -17.3081 -19.4208 5.43552e-018 0 -0 
55.9778 87.2393 138.759 4.36737 0.745968 175.469 8.21746 12.8489 2.38641 -13.9535 -32.5762 -4.40775 16.161 23.8212 -5.77369 -93.5093 38.7055 -3.95886 22.6736 -6.15993 -25.5129 1.23775 12.7736 0.795224 80.049 50.0664 2.50169 -21.1347 -6.24856 27.7192 0.969463 25.5673 -0.630405 9.28035 -10.2184 2.20367 -0.721427 32.4628 -9.15121 -0.131782 -21.3009 8.08178 6.3285e-017 0 3.97569e-016 3.86972 -4.06267 -2.16493 -0.0974385 22.7763 9.10323 -2.62296 -17.3348 -18.9508 -1.86361e-017 -2.48481e-017 -0 
55.9649 87.2024 138.801 4.37788 0.506036 175.289 8.14141 13.2755 2.37886 -13.5471 -32.5519 -4.25497 15.4965 22.4886 -5.54167 -93.0151 38.8567 -4.35085 22.7062 -6.20049 -25.6105 1.19897 12.4189 0.833157 79.5948 49.716 3.12026 -21.1847 -6.31294 27.8851 0.93985 24.2444 -0.58777 9.54795 -10.7587 3.16533 -0.699471 32.931 -9.15069 -0.0516666 -21.3515 7.44771 3.92134e-017 1.2424e-017 -0 3.8112 -4.81653 -2.6299 -0.158548 23.4203 9.06978 -2.64488 -17.3942 -18.3482 2.48481e-017 0 3.18055e-015 
55.9345 87.0764 138.846 4.58454 0.149321 175.02 8.48374 13.6356 2.54369 -13.6098 -32.8941 -4.11007 15.4411 21.5686 -5.25458 -93.1282 38.6455 -4.53209 22.858 -6.28525 -25.8938 1.18888 12.4047 0.818402 79.1605 48.8956 3.57326 -21.2117 -6.31818 27.9359 0.935156 23.8979 -0.578732 10.1787 -11.6306 4.54803 -0.659576 33.8282 -9.16612 0.034292 -21.5882 6.3364 -1.49089e-016 0 -0 4.02278 -5.91475 -2.80953 -0.214417 24.4323 8.99536 -2.76387 -17.5801 -18.123 6.21202e-017 0 -0 
55.8903 86.928 138.821 4.58024 -0.30909 174.111 8.55192 14.0038 3.05427 -14.0084 -32.6878 -3.80167 15.8197 19.8759 -4.82083 -93.2415 38.3699 -4.673 23.0011 -6.371 -26.1702 1.16699 11.8129 0.827373 78.7668 48.296 3.80961 -21.2901 -6.36189 28.0754 0.935785 23.8197 -0.575633 10.4772 -12.4021 5.94803 -0.628349 34.7257 -9.16009 0.264819 -21.8916 6.03945 -7.4156e-017 6.21202e-018 -0 3.77609 -7.31711 -3.39636 -0.312161 25.6388 8.93654 -2.65285 -17.8793 -16.6585 -4.96962e-017 -4.96962e-017 -0 
55.8364 86.74 139.075 4.47706 -0.902878 175.391 8.48125 14.4119 1.98565 -13.944 -33.582 -4.26527 15.8718 18.9328 -4.91877 -92.2688 38.4832 -5.56051 23.161 -6.45332 -26.4622 1.14004 10.9747 0.827357 78.235 47.1851 4.9687 -21.233 -6.31026 27.9951 0.941129 24.1773 -0.575146 11.0073 -14.3818 7.12538 -0.569861 35.9907 -9.2064 0.076696 -21.7994 3.68581 -1.55301e-017 -1.86361e-017 -0 3.64565 -8.92587 -4.40387 -0.380895 27.1287 8.85547 -2.83195 -18.4247 -16.7568 4.34841e-017 0 -0 
55.6909 86.5382 139.145 4.65754 -0.778879 175.695 8.88913 15.9856 1.2738 -14.0008 -33.1975 -4.06467 15.6531 16.4683 -4.33188 -91.5172 38.1256 -6.74309 23.3559 -6.54553 -26.8678 1.1668 10.4367 0.798495 76.7489 46.7105 6.68628 -21.1908 -6.27007 27.91 0.942885 24.2591 -0.574683 11.4049 -15.1022 7.7567 -0.443963 37.2346 -9.28925 0.0612135 -22.198 2.68437 -7.68738e-017 -1.2424e-017 3.97569e-016 3.5308 -9.6315 -5.65597 -0.517446 28.5491 8.85066 -3.15853 -18.9187 -16.0453 -1.61513e-016 0 -0 
55.6122 86.2346 139.277 4.692 -1.30374 175.994 9.20989 16.5961 0.866297 -14.3075 -33.3099 -4.05485 15.8117 14.6544 -3.96837 -91.0707 38.0207 -7.4894 23.415 -6.57769 -27.0006 1.1326 10.3344 0.811044 75.9931 45.8984 7.57908 -21.251 -6.28242 28.012 0.942115 24.2058 -0.575452 11.9395 -16.789 8.90556 -0.306482 38.8222 -9.40414 -0.157271 -22.5965 1.27244 4.34841e-017 0 -3.97569e-016 3.32103 -11.4464 -6.53067 -0.60009 30.5261 8.77315 -3.24388 -19.5946 -15.5203 -1.49089e-016 4.96962e-017 -3.18055e-015 
55.5747 85.8659 139.322 4.54907 -1.734 175.582 8.81849 17.4882 1.0777 -14.133 -33.5748 -3.79901 15.9762 12.9635 -3.65109 -90.1756 37.5227 -8.43513 23.441 -6.60144 -27.1128 1.1332 10.0144 0.819242 75.5367 45.0445 8.58172 -21.2954 -6.27915 28.0898 0.940748 24.1729 -0.580464 12.3202 -18.0605 10.282 -0.149446 40.4345 -9.51571 -0.249727 -23.2229 0.66125 -4.65902e-018 0 -0 2.95537 -13.5268 -6.89906 -0.670087 33.0552 8.64496 -3.4783 -20.388 -15.154 3.72721e-017 0 3.18055e-015 
55.4696 85.4944 139.37 4.62842 -1.85894 175.918 9.23914 18.7208 0.316735 -14.6593 -33.9738 -4.04135 16.4548 11.7947 -3.50736 -89.5048 37.0885 -9.60469 23.4692 -6.59049 -27.1818 1.09669 10.2794 0.827216 74.3246 44.3606 9.92281 -21.3033 -6.27083 28.1122 0.945439 25.0111 -0.603943 12.7755 -19.2747 11.0769 0.0443751 42.2492 -9.63372 -0.288102 -24.0978 -0.390407 3.72721e-017 0 -7.95139e-016 2.68503 -14.914 -7.81774 -0.747315 35.207 8.58721 -3.92976 -21.1654 -15.2532 -2.48481e-017 1.49089e-016 -0 
55.5087 85.0277 139.524 4.32175 -2.78127 174.966 8.44822 19.3066 1.01316 -14.2154 -34.5214 -3.70674 16.325 10.9408 -3.39239 -88.3137 36.8545 -10.7073 23.4571 -6.54838 -27.141 1.10624 9.72285 0.800146 73.4116 44.1421 11.4223 -21.268 -6.25293 28.0757 0.92387 25.1728 -0.613965 13.2899 -21.1261 12.8391 0.153487 44.1877 -9.68086 -0.245704 -25.0275 -0.78806 -1.2424e-016 -1.98785e-016 1.19271e-015 2.20524 -17.7184 -7.91854 -0.727215 37.8481 8.42126 -3.81199 -21.8981 -14.9999 9.93923e-017 -9.93923e-017 6.36111e-015 
55.4911 84.5144 139.517 4.39856 -3.23762 174.434 8.56199 20.3108 1.04701 -14.3357 -34.8635 -3.65946 16.4629 9.97122 -3.29692 -88.1333 35.8788 -11.4726 23.4267 -6.53083 -27.1402 1.10306 10.2557 0.810935 72.5026 43.5739 12.5939 -21.4269 -6.28316 28.3016 0.909002 25.9228 -0.655464 14.0661 -22.4936 14.0771 0.31198 46.2561 -9.8355 -0.434402 -26.0368 -1.05515 -2.48481e-017 2.98177e-016 7.95139e-016 2.0939 -19.6427 -8.148 -0.743148 40.1965 8.3351 -3.90929 -22.7051 -14.881 -4.47266e-016 -4.96962e-017 -0 
